<svg xmlns="http://www.w3.org/2000/svg" width="460" height="502" fill="none"><g clip-path="url(#a)"><path fill="#fff" d="m39.51 320.649 6.668 1.92 3.65-6.638c1.618.164 3.237.192 4.828.082l3.403 6.748 6.722-1.673-.164-7.571a31.763 31.763 0 0 0 4.225-2.332l6.338 4.142 4.994-4.8-3.924-6.447a28.432 28.432 0 0 0 2.47-4.142l7.545.439 1.92-6.666-6.64-3.648c.165-1.619.193-3.237.083-4.828l6.75-3.402-1.674-6.721-7.573.165a31.68 31.68 0 0 0-2.332-4.224l4.143-6.337-4.801-4.993-6.448 3.923a28.427 28.427 0 0 0-4.144-2.469l.44-7.544-6.668-1.92-3.677 6.694a28.482 28.482 0 0 0-4.829-.083l-3.402-6.748-6.722 1.673.164 7.572a31.645 31.645 0 0 0-4.225 2.331l-6.339-4.142-4.993 4.801 3.923 6.446a28.44 28.44 0 0 0-2.469 4.142l-7.546-.439-1.92 6.666 6.64 3.621a28.438 28.438 0 0 0-.082 4.828l-6.75 3.402 1.673 6.72 7.573-.164a31.68 31.68 0 0 0 2.333 4.224l-4.143 6.337 4.801 4.993 6.448-3.923a28.422 28.422 0 0 0 4.143 2.469l-.411 7.516Zm-3.923-38.377c2.716-9.464 12.594-14.95 22.06-12.234 9.466 2.715 14.954 12.591 12.238 22.055-2.717 9.464-12.594 14.95-22.06 12.234-9.494-2.716-14.954-12.591-12.238-22.055Z"/><path fill="#FF3811" d="M58.031 323.392a.659.659 0 0 1-.548-.329l-3.21-6.392a25.785 25.785 0 0 1-4.116-.082l-3.43 6.282a.628.628 0 0 1-.713.302l-6.668-1.92a.599.599 0 0 1-.439-.631l.412-7.16a32.594 32.594 0 0 1-3.54-2.112l-6.119 3.703c-.247.137-.548.11-.74-.11l-4.802-4.992c-.192-.192-.22-.522-.082-.768l3.923-5.98a30.835 30.835 0 0 1-2.003-3.594l-7.161.165a.587.587 0 0 1-.576-.467l-1.674-6.721a.607.607 0 0 1 .33-.685l6.392-3.21a25.836 25.836 0 0 1 .083-4.115l-6.284-3.429c-.247-.137-.356-.438-.301-.713l1.92-6.666c.082-.274.302-.466.631-.439l7.162.412a32.525 32.525 0 0 1 2.112-3.539l-3.704-6.117c-.137-.247-.11-.549.11-.741l4.994-4.8c.192-.192.521-.22.768-.083l5.981 3.923a30.668 30.668 0 0 1 3.595-2.002l-.165-7.16c0-.274.192-.521.467-.604l6.722-1.673c.274-.082.549.055.686.329l3.21 6.392a25.902 25.902 0 0 1 4.116.082l3.457-6.282c.137-.247.44-.356.714-.301l6.667 1.92a.598.598 0 0 1 .439.631l-.521 7.159a32.603 32.603 0 0 1 3.54 2.113l6.118-3.704c.247-.137.549-.109.74.11l4.802 4.993c.192.192.22.521.083.768l-3.924 5.98a30.726 30.726 0 0 1 2.003 3.593l7.161-.164c.275 0 .522.192.577.466l1.673 6.721a.609.609 0 0 1-.329.686l-6.393 3.209a25.824 25.824 0 0 1-.082 4.115l6.283 3.456c.247.138.357.439.302.714l-1.92 6.666a.597.597 0 0 1-.632.438l-7.161-.411a32.653 32.653 0 0 1-2.113 3.539l3.704 6.117c.137.247.11.549-.11.741l-4.993 4.8c-.192.192-.522.22-.769.082l-5.981-3.922a30.814 30.814 0 0 1-3.595 2.002l.165 7.16a.642.642 0 0 1-.466.603l-6.723 1.674c.055-.028 0-.028-.055-.028Zm-3.402-7.982c.22 0 .44.137.549.329l3.183 6.309 5.79-1.454-.165-7.077c0-.247.137-.467.356-.576a31.626 31.626 0 0 0 4.116-2.277.579.579 0 0 1 .658 0l5.927 3.895 4.28-4.142-3.676-6.035a.577.577 0 0 1 .027-.658 27.347 27.347 0 0 0 2.415-4.06.57.57 0 0 1 .576-.329l7.079.411 1.646-5.733-6.2-3.402c-.22-.109-.33-.356-.303-.603.165-1.591.192-3.182.083-4.718a.572.572 0 0 1 .329-.576l6.31-3.183-1.453-5.788-7.08.165a.64.64 0 0 1-.576-.357c-.63-1.426-1.427-2.825-2.277-4.114a.579.579 0 0 1 0-.659l3.896-5.925-4.116-4.279-6.036 3.675a.576.576 0 0 1-.659-.027 27.365 27.365 0 0 0-4.06-2.414.572.572 0 0 1-.33-.576l.412-7.077-5.735-1.646-3.402 6.199c-.11.22-.33.329-.604.302a27.151 27.151 0 0 0-4.719-.082.574.574 0 0 1-.576-.329l-3.183-6.31-5.79 1.454.165 7.078a.641.641 0 0 1-.356.576c-1.427.631-2.827 1.426-4.116 2.276a.575.575 0 0 1-.659 0l-5.954-3.895-4.28 4.115 3.677 6.035a.577.577 0 0 1-.028.658 27.347 27.347 0 0 0-2.414 4.06.571.571 0 0 1-.577.329l-7.079-.411-1.646 5.733 6.201 3.402c.22.109.33.356.302.603a27.196 27.196 0 0 0-.082 4.718.572.572 0 0 1-.33.576l-6.31 3.182 1.454 5.789 7.079-.165a.64.64 0 0 1 .576.357 26.156 26.156 0 0 0 2.277 4.114.579.579 0 0 1 0 .659l-3.896 5.925 4.143 4.279 6.037-3.676a.578.578 0 0 1 .658.028 26.027 26.027 0 0 0 4.061 2.414c.22.11.357.329.33.576l-.412 7.077 5.734 1.646 3.403-6.199c.11-.22.356-.33.603-.302a27.25 27.25 0 0 0 4.72.082c0 .028.027.028.027.028Zm-1.866-9.794c-1.7 0-3.43-.246-5.103-.713-9.768-2.798-15.448-13.03-12.65-22.795 1.345-4.746 4.473-8.669 8.781-11.055 4.308-2.387 9.302-2.963 14.02-1.591 9.769 2.798 15.449 13.03 12.65 22.795-1.345 4.746-4.472 8.669-8.78 11.055a18.465 18.465 0 0 1-8.918 2.304Zm-16.6-23.179c-2.606 9.134 2.69 18.681 11.799 21.314 4.417 1.262 9.082.741 13.088-1.481 4.033-2.222 6.941-5.898 8.204-10.314 2.606-9.135-2.69-18.681-11.799-21.315-4.417-1.262-9.082-.741-13.088 1.481-4.006 2.222-6.942 5.871-8.204 10.315Z"/><path fill="#fff" d="m38.935 452.431 11.386 3.264 6.229-11.356a52.03 52.03 0 0 0 8.259.164l5.817 11.549 11.496-2.853-.302-12.948c2.525-1.124 4.912-2.469 7.217-4.005l10.838 7.105 8.533-8.229-6.722-11.055a50.91 50.91 0 0 0 4.252-7.078l12.924.741 3.265-11.384-11.359-6.227a52.01 52.01 0 0 0 .164-8.257l11.552-5.816-2.854-11.494-12.951.302c-1.125-2.524-2.469-4.91-4.006-7.214l7.107-10.836-8.232-8.531-11.057 6.721a50.801 50.801 0 0 0-7.08-4.252l.742-12.921-11.387-3.264-6.229 11.357a51.914 51.914 0 0 0-8.259-.165L52.462 334.2l-11.497 2.853.302 12.948c-2.525 1.125-4.912 2.469-7.216 4.005l-10.839-7.105-8.533 8.23 6.723 11.055a50.933 50.933 0 0 0-4.253 7.077l-12.924-.741L.96 383.907l11.36 6.227a51.984 51.984 0 0 0-.165 8.256L.604 404.206 3.457 415.7l12.95-.302c1.126 2.524 2.47 4.91 4.007 7.215l-7.107 10.835 8.232 8.531 11.057-6.72a50.989 50.989 0 0 0 7.08 4.252l-.741 12.92Zm-6.723-65.726c4.637-16.185 21.54-25.567 37.755-20.903 16.189 4.636 25.572 21.534 20.908 37.746-4.637 16.184-21.539 25.566-37.755 20.903-16.188-4.664-25.545-21.562-20.908-37.746Z"/><path fill="#FF3811" d="M70.626 456.655a.659.659 0 0 1-.55-.329l-5.624-11.192a53.55 53.55 0 0 1-7.545-.137l-6.037 11a.628.628 0 0 1-.713.302l-11.387-3.265a.597.597 0 0 1-.439-.631l.713-12.508a52.468 52.468 0 0 1-6.475-3.868l-10.7 6.501c-.248.137-.55.11-.742-.11l-8.231-8.531c-.192-.192-.22-.521-.082-.768L19.7 422.64c-1.372-2.112-2.607-4.307-3.65-6.611l-12.539.274c-.302 0-.521-.192-.604-.466l-2.88-11.494a.61.61 0 0 1 .329-.686l11.167-5.623a53.41 53.41 0 0 1 .137-7.544L.658 384.455c-.246-.137-.356-.439-.301-.713l3.265-11.384c.082-.274.302-.467.63-.439l12.54.713a52.405 52.405 0 0 1 3.869-6.474l-6.503-10.698c-.137-.247-.11-.549.11-.741l8.533-8.229c.192-.192.521-.22.768-.083l10.482 6.886c2.112-1.372 4.307-2.606 6.612-3.649l-.274-12.536c0-.274.192-.521.466-.603l11.497-2.853c.274-.083.549.055.686.329l5.625 11.192a53.55 53.55 0 0 1 7.545.137l6.037-11c.137-.247.438-.357.713-.302l11.387 3.265a.597.597 0 0 1 .439.631l-.714 12.508a52.592 52.592 0 0 1 6.476 3.868l10.701-6.501c.247-.137.548-.11.74.11l8.232 8.531c.192.192.219.521.082.768l-6.887 10.479c1.372 2.112 2.607 4.307 3.649 6.611l12.54-.274c.274 0 .521.192.576.466l2.853 11.494a.608.608 0 0 1-.329.686l-11.195 5.623a53.23 53.23 0 0 1-.137 7.544l11.003 6.035c.247.137.357.439.302.713l-3.265 11.384a.598.598 0 0 1-.631.439l-12.512-.713a52.456 52.456 0 0 1-3.869 6.474l6.503 10.698c.137.247.11.549-.11.741l-8.533 8.229c-.192.192-.522.22-.768.083l-10.482-6.886c-2.112 1.372-4.308 2.606-6.612 3.649l.274 12.536a.644.644 0 0 1-.466.604l-11.497 2.852h-.082Zm-5.817-12.783c.22 0 .439.137.549.329l5.597 11.11 10.564-2.633-.275-12.454c0-.247.137-.467.357-.576 2.47-1.125 4.884-2.442 7.134-3.95a.575.575 0 0 1 .658 0l10.427 6.83 7.82-7.571-6.476-10.644a.577.577 0 0 1 .028-.658c1.564-2.167 2.963-4.526 4.198-6.995a.572.572 0 0 1 .576-.329l12.429.713 2.991-10.451-10.92-5.981c-.22-.109-.329-.356-.302-.603.274-2.743.329-5.486.165-8.147a.57.57 0 0 1 .329-.576l11.112-5.596-2.634-10.562-12.457.275a.64.64 0 0 1-.576-.357c-1.125-2.469-2.442-4.883-3.951-7.132a.578.578 0 0 1 0-.658l6.832-10.425-7.573-7.818-10.59 6.502a.578.578 0 0 1-.66-.028c-2.167-1.563-4.527-2.962-6.996-4.197a.572.572 0 0 1-.33-.576l.714-12.426-10.454-2.99-5.981 10.917c-.11.22-.357.33-.604.302a50.724 50.724 0 0 0-8.15-.164.573.573 0 0 1-.575-.33l-5.598-11.109-10.563 2.633.274 12.454a.64.64 0 0 1-.357.576 51.749 51.749 0 0 0-7.134 3.95.579.579 0 0 1-.658 0l-10.427-6.83-7.82 7.571 6.476 10.643c.137.22.11.467-.028.659-1.563 2.167-2.963 4.526-4.198 6.995a.574.574 0 0 1-.576.329l-12.43-.713-2.99 10.451 10.92 5.98c.22.11.33.357.302.604a50.686 50.686 0 0 0-.164 8.147.573.573 0 0 1-.33.576l-11.112 5.596 2.634 10.561 12.457-.274a.64.64 0 0 1 .576.357 51.73 51.73 0 0 0 3.951 7.132.577.577 0 0 1 0 .658l-6.832 10.424 7.573 7.818 10.646-6.474a.578.578 0 0 1 .658.028c2.168 1.564 4.528 2.963 6.997 4.197.22.11.357.329.33.576l-.714 12.427 10.454 2.99 5.982-10.918c.11-.22.329-.329.603-.302 2.744.274 5.488.329 8.15.165-.056 0-.028-.028-.028-.028Zm-3.265-17.638c-2.826 0-5.707-.384-8.561-1.207-7.984-2.305-14.625-7.571-18.63-14.841-4.034-7.269-4.994-15.663-2.69-23.673 2.305-7.983 7.573-14.622 14.845-18.627 7.27-4.032 15.667-4.992 23.679-2.688 7.984 2.304 14.624 7.571 18.63 14.841 4.034 7.269 4.994 15.663 2.69 23.673-3.952 13.634-16.436 22.522-29.963 22.522Zm-29.332-39.529.576.164c-2.194 7.681-1.29 15.746 2.58 22.741 3.868 6.995 10.234 12.043 17.917 14.237a29.495 29.495 0 0 0 8.231 1.152c13.006 0 24.996-8.558 28.755-21.671 2.195-7.681 1.29-15.746-2.579-22.741-3.869-6.995-10.234-12.042-17.917-14.237-7.683-2.194-15.75-1.289-22.746 2.579-6.997 3.868-12.045 10.232-14.24 17.913l-.577-.137Z"/><path fill="#fff" d="M277.097 296.262c4.884-6.501-27.383-18.132-26.944-40.983.384-20.875 27.63-26.224 26.835-45.344-.851-20.464-32.46-24.469-32.487-45.317 0-16.075 18.74-18.489 20.277-35.689 1.838-20.656-24.695-23.399-33.338-50.666-8.066-25.457 10.454-37.719-3.045-57.881-1.756-2.606-12.732-18.297-28.261-18.517-25.298-.384-57.977 40.215-53.148 75.355 4.033 29.572 31.636 33.138 33.255 64.574 1.372 26.637-18.109 31.081-11.771 51.737 7.491 24.441 37.261 26.361 43.38 53.93 3.21 14.429-3.952 18.462 1.92 28.666 12.402 21.562 57.922 27.295 63.327 20.135Z"/><path fill="#000" d="M265.491 299.801a58.81 58.81 0 0 1-3.731-.11c-14.652-.905-39.676-7.845-48.538-23.262-3.266-5.678-2.634-9.573-1.894-14.072.631-3.841 1.345-8.202-.109-14.759-3.156-14.237-12.896-21.643-22.335-28.83-8.561-6.529-17.423-13.25-21.045-25.045-3.32-10.836.247-17.227 4.363-24.607 3.759-6.775 8.039-14.456 7.38-27.267-.823-16.157-8.451-24.661-16.517-33.658-7.271-8.12-14.762-16.487-16.738-30.861-3.018-22.055 8.396-44 20.058-57.195 10.755-12.152 23.048-19.01 33.694-18.846 15.53.22 26.697 15.719 28.755 18.818 7.353 10.973 5.378 19.834 3.265 29.188-1.893 8.421-3.841 17.117-.137 28.83 4.116 13.03 12.402 20.41 19.673 26.911 7.847 6.995 14.652 13.057 13.664 24.003-.768 8.778-5.872 13.743-10.811 18.544-4.884 4.745-9.466 9.244-9.466 17.062 0 10.259 7.765 16.24 15.997 22.549 7.902 6.062 16.051 12.344 16.49 22.713.412 9.766-6.091 15.856-13.006 22.33-6.695 6.282-13.636 12.783-13.828 23.042-.247 13.332 10.92 22.796 19.069 29.709 5.844 4.965 10.07 8.531 7.738 11.631-1.455 2.057-5.762 3.182-11.991 3.182ZM199.804 2.469c-10.097 0-22.197 6.858-32.459 18.434-11.497 12.975-22.746 34.564-19.783 56.208 1.921 13.99 9.302 22.22 16.436 30.202 7.847 8.778 15.969 17.83 16.819 34.427.686 13.167-3.677 21.012-7.545 27.925-3.979 7.16-7.409 13.332-4.253 23.674 3.512 11.439 11.826 17.748 20.633 24.441 9.604 7.297 19.509 14.841 22.774 29.517 1.509 6.775.768 11.274.11 15.224-.741 4.444-1.317 7.983 1.728 13.277 8.616 15.005 33.173 21.754 47.55 22.659 7.546.466 13.226-.521 14.762-2.579 1.646-2.167-2.414-5.596-7.573-9.957-8.341-7.078-19.755-16.761-19.508-30.669.192-10.781 7.326-17.447 14.213-23.921 6.695-6.281 13.005-12.179 12.621-21.396-.411-9.821-7.984-15.636-15.996-21.808-8.094-6.227-16.463-12.674-16.463-23.509 0-8.34 4.994-13.222 9.823-17.941 4.774-4.663 9.713-9.464 10.454-17.803.905-10.342-5.653-16.212-13.28-22.988-7.409-6.61-15.805-14.072-20.03-27.431-3.814-12.043-1.729-21.287.11-29.462 2.14-9.491 3.978-17.72-3.073-28.255-2.031-3.017-12.842-18.05-27.768-18.27h-.302Z"/><path fill="#000" d="M266.808 292.586c-.055 0-.11 0-.192-.027-19.563-6.062-31.883-14.594-36.657-25.374-3.622-8.175-1.564-14.786.603-21.781 2.195-7.023 4.445-14.292 1.208-23.975-3.43-10.26-9.604-14.868-15.558-19.312-5.789-4.334-11.25-8.422-13.692-17.172-3.429-12.372 2.991-21.178 9.22-29.682 6.036-8.229 12.265-16.76 9.85-28.721-1.948-9.656-8.231-15.279-14.899-21.232-7.216-6.446-15.393-13.743-19.207-27.35-2.853-10.121-2.551-20.93.878-32.176a.631.631 0 0 1 .769-.412.63.63 0 0 1 .411.768c-3.347 11-3.649 21.589-.878 31.492 3.732 13.25 11.414 20.135 18.85 26.773 6.832 6.09 13.28 11.851 15.283 21.918 2.497 12.481-3.896 21.232-10.07 29.681-6.338 8.641-12.319 16.816-9.027 28.639 2.333 8.339 7.628 12.317 13.225 16.514 6.119 4.581 12.43 9.299 15.969 19.915 3.375 10.067 1.043 17.529-1.207 24.716-2.113 6.776-4.116 13.167-.658 20.93 4.637 10.424 16.709 18.736 35.916 24.689.329.11.494.439.412.768-.055.247-.275.411-.549.411Z"/><path fill="#fff" d="M288.704 385.004c2.195-5.02-25.764-12.536-49.279-47.923-14.24-21.424-19.728-42.355-24.694-61.996-12.292-48.609-2.195-58.128-15.256-80.759-15.667-27.157-35.422-16.706-57.73-44.659-27.493-34.481-6.914-62.27-35.12-93.322-15.393-16.98-42.776-32.068-66.84-24.332-14.542 4.69-29.77 18.324-30.154 33.192-.384 14.347 13.307 19.12 24.036 36.567 19.152 31.162-3.677 49.843 8.506 81.444 16.545 42.876 68.54 34.235 90.792 85.313 8.945 20.574 1.262 23.701 9.192 43.342 26.78 66.302 142.184 83.063 146.547 73.133Z"/><path fill="#000" d="M277.482 388.268h-1.043c-16.133-.247-44.312-5.815-70.9-17.776-22.499-10.122-51.858-28.474-63.958-58.374-3.896-9.629-4.061-15.389-4.253-20.985-.192-6.09-.384-11.851-4.939-22.357-11.414-26.252-30.593-36.539-49.114-46.47-17.259-9.244-33.585-17.995-41.651-38.87-5.625-14.594-3.87-26.499-2.168-37.993 2.03-13.689 3.979-26.636-6.31-43.342-4.199-6.83-8.836-11.686-12.924-15.993-6.393-6.693-11.442-11.987-11.195-20.93.412-15.088 15.86-29.023 30.594-33.741 24.063-7.736 51.83 7.27 67.47 24.496 14.378 15.856 16.161 30.614 18.027 46.223 1.783 14.84 3.622 30.202 17.121 47.127 10.756 13.469 20.689 17.858 30.319 22.11 9.933 4.389 19.317 8.504 27.466 22.631 6.942 12.015 7.408 20.245 8.094 32.672.631 11.247 1.4 25.237 7.244 48.224 4.747 18.764 10.125 40.051 24.612 61.831 14.844 22.357 31.307 33.412 41.13 40.023 5.954 4.005 9.219 6.2 8.204 8.504-1.125 2.414-6.833 2.99-11.826 2.99ZM53.312 30.558c-4.5 0-8.972.632-13.335 2.03-14.322 4.61-29.358 18.078-29.742 32.617-.22 8.45 4.664 13.579 10.865 20.053 4.143 4.334 8.835 9.272 13.088 16.184 10.509 17.09 8.533 30.258 6.475 44.165-1.7 11.33-3.43 23.071 2.086 37.362 7.902 20.464 24.035 29.105 41.102 38.24 18.713 10.04 38.084 20.409 49.69 47.046 4.665 10.725 4.857 16.843 5.049 22.795.165 5.487.357 11.138 4.171 20.574 20.825 51.572 98.64 74.889 133.733 75.41 7.847.11 11.167-1.097 11.689-2.277.603-1.372-2.909-3.731-7.765-6.995-9.906-6.666-26.478-17.803-41.459-40.352-14.597-21.945-20.003-43.342-24.777-62.188-5.844-23.097-6.64-37.17-7.271-48.472-.686-12.262-1.125-20.381-7.93-32.15-7.957-13.77-16.737-17.638-26.889-22.137-9.302-4.087-19.838-8.751-30.786-22.466-13.691-17.173-15.557-32.699-17.368-47.732-1.838-15.416-3.594-30.01-17.725-45.564-12.567-13.77-33.008-26.142-52.9-26.142Z"/><path fill="#000" d="M268.564 382.617a.792.792 0 0 1-.247-.055c-22.965-9.628-41.349-21.012-54.629-33.795-10.756-10.37-18.411-21.946-22.828-34.455-4.61-13.085-5.131-25.456-5.625-37.416-.741-17.913-1.454-34.839-15.722-51.956-10.043-12.07-20.551-16.843-30.703-21.452-11.332-5.157-22.006-10.012-29.359-24.716-5.104-10.232-5.213-18.461-5.296-28.007-.11-9.409-.219-20.053-4.856-35.716-4.61-15.5-11.99-30.258-21.978-43.864a.611.611 0 0 1 .137-.85.611.611 0 0 1 .85.137c10.07 13.716 17.533 28.611 22.171 44.247 4.691 15.828 4.801 26.582 4.911 36.073.11 9.766.192 17.474 5.186 27.459 7.161 14.347 17.176 18.901 28.782 24.167 9.796 4.444 20.936 9.492 31.143 21.781 14.514 17.447 15.228 34.564 15.996 52.697.494 11.877 1.015 24.167 5.57 37.06 9.686 27.514 35.505 50.255 76.772 67.537.302.137.466.493.329.795a.754.754 0 0 1-.604.329Z"/><path fill="#FF3811" d="M428.035 388.35H237.093V0h189.542a9.87 9.87 0 0 1 9.878 9.875v370.027c0 4.663-3.786 8.448-8.478 8.448Z"/><path fill="#fff" d="M416.62 388.68H233.032a7.904 7.904 0 0 1-7.903-7.901V8.586c0-4.362 3.54-7.9 7.903-7.9H416.62a7.903 7.903 0 0 1 7.902 7.9V380.78c.028 4.362-3.512 7.901-7.902 7.901Z"/><path fill="#000" d="M284.451 148.927h-22.527a2.752 2.752 0 0 1-2.744-2.743v-20.465a2.752 2.752 0 0 1 2.744-2.743h22.527a2.751 2.751 0 0 1 2.743 2.743v20.465c-.027 1.508-1.234 2.743-2.743 2.743Zm35.505 0h-22.829a2.752 2.752 0 0 1-2.744-2.743v-20.465a2.752 2.752 0 0 1 2.744-2.743h22.829a2.751 2.751 0 0 1 2.743 2.743v20.465a2.751 2.751 0 0 1-2.743 2.743Zm35.312.329h-22.224a2.752 2.752 0 0 1-2.744-2.743v-20.464a2.752 2.752 0 0 1 2.744-2.744h22.224a2.752 2.752 0 0 1 2.744 2.744v20.464a2.751 2.751 0 0 1-2.744 2.743Zm34.902 0h-22.225a2.752 2.752 0 0 1-2.744-2.743v-20.464a2.752 2.752 0 0 1 2.744-2.744h22.225a2.752 2.752 0 0 1 2.744 2.744v20.464a2.752 2.752 0 0 1-2.744 2.743Zm-105.719 34.893h-22.527a2.751 2.751 0 0 1-2.744-2.743v-20.464a2.751 2.751 0 0 1 2.744-2.743h22.527a2.75 2.75 0 0 1 2.743 2.743v20.464c-.027 1.509-1.234 2.743-2.743 2.743Zm35.505 0h-22.829a2.751 2.751 0 0 1-2.744-2.743v-20.464a2.751 2.751 0 0 1 2.744-2.743h22.829a2.75 2.75 0 0 1 2.743 2.743v20.464a2.75 2.75 0 0 1-2.743 2.743Zm35.312.329h-22.224a2.751 2.751 0 0 1-2.744-2.743v-20.437a2.752 2.752 0 0 1 2.744-2.743h22.224a2.751 2.751 0 0 1 2.744 2.743v20.464c0 1.482-1.234 2.716-2.744 2.716Zm34.902 0h-22.225a2.751 2.751 0 0 1-2.744-2.743v-20.437a2.752 2.752 0 0 1 2.744-2.743h22.225a2.752 2.752 0 0 1 2.744 2.743v20.464c0 1.482-1.235 2.716-2.744 2.716Zm-105.006 34.893h-22.527a2.75 2.75 0 0 1-2.743-2.743v-20.464a2.75 2.75 0 0 1 2.743-2.743h22.527a2.751 2.751 0 0 1 2.744 2.743v20.464c-.028 1.509-1.235 2.743-2.744 2.743Zm34.929 0h-22.829a2.75 2.75 0 0 1-2.743-2.743v-20.464a2.75 2.75 0 0 1 2.743-2.743h22.829a2.751 2.751 0 0 1 2.744 2.743v20.464c-.028 1.509-1.235 2.743-2.744 2.743Zm35.889.329h-22.225a2.751 2.751 0 0 1-2.744-2.743v-20.464a2.751 2.751 0 0 1 2.744-2.743h22.225a2.751 2.751 0 0 1 2.744 2.743v20.492c0 1.508-1.235 2.715-2.744 2.715Zm34.901 0h-22.225a2.75 2.75 0 0 1-2.743-2.743v-20.464a2.75 2.75 0 0 1 2.743-2.743h22.225a2.751 2.751 0 0 1 2.744 2.743v20.492a2.746 2.746 0 0 1-2.744 2.715Zm-105.719 34.894h-22.527a2.751 2.751 0 0 1-2.743-2.744v-20.464a2.751 2.751 0 0 1 2.743-2.743h22.527a2.752 2.752 0 0 1 2.744 2.743v20.464c-.028 1.509-1.235 2.744-2.744 2.744Zm35.532 0h-22.828a2.752 2.752 0 0 1-2.744-2.744v-20.464a2.752 2.752 0 0 1 2.744-2.743h22.828a2.752 2.752 0 0 1 2.744 2.743v20.464c-.027 1.509-1.235 2.744-2.744 2.744Zm35.286.329h-22.225a2.752 2.752 0 0 1-2.744-2.743v-20.464a2.752 2.752 0 0 1 2.744-2.744h22.225a2.752 2.752 0 0 1 2.744 2.744v20.464a2.734 2.734 0 0 1-2.744 2.743Zm34.901 0h-22.225a2.751 2.751 0 0 1-2.743-2.743v-20.464a2.751 2.751 0 0 1 2.743-2.744h22.225a2.752 2.752 0 0 1 2.744 2.744v20.464c-.027 1.536-1.235 2.743-2.744 2.743Z"/><path fill="#fff" d="M281.652 149.969h-20.441a2.751 2.751 0 0 1-2.744-2.743v-20.464a2.751 2.751 0 0 1 2.744-2.743h20.468a2.75 2.75 0 0 1 2.744 2.743v20.464c-.027 1.509-1.262 2.743-2.771 2.743Z"/><path fill="#000" d="M281.652 150.573h-20.469a3.36 3.36 0 0 1-3.347-3.347v-20.464a3.36 3.36 0 0 1 3.347-3.347h20.469a3.36 3.36 0 0 1 3.348 3.347v20.464a3.36 3.36 0 0 1-3.348 3.347Zm-20.469-25.923c-1.179 0-2.112.96-2.112 2.112v20.464c0 1.179.96 2.112 2.112 2.112h20.469c1.18 0 2.113-.96 2.113-2.112v-20.464c0-1.18-.96-2.112-2.113-2.112h-20.469Z"/><path fill="#fff" d="M316.883 149.969h-20.469a2.751 2.751 0 0 1-2.744-2.743v-20.464a2.751 2.751 0 0 1 2.744-2.743h20.469a2.75 2.75 0 0 1 2.743 2.743v20.464a2.75 2.75 0 0 1-2.743 2.743Z"/><path fill="#000" d="M316.883 150.573h-20.469a3.361 3.361 0 0 1-3.348-3.347v-20.464a3.361 3.361 0 0 1 3.348-3.347h20.469a3.36 3.36 0 0 1 3.347 3.347v20.464a3.36 3.36 0 0 1-3.347 3.347Zm-20.442-25.923c-1.18 0-2.112.96-2.112 2.112v20.464c0 1.179.96 2.112 2.112 2.112h20.469c1.18 0 2.113-.96 2.113-2.112v-20.464c0-1.18-.96-2.112-2.113-2.112h-20.469Z"/><path fill="#fff" d="M352.772 150.298h-20.469a2.751 2.751 0 0 1-2.744-2.743v-20.464a2.751 2.751 0 0 1 2.744-2.743h20.469a2.751 2.751 0 0 1 2.744 2.743v20.464a2.751 2.751 0 0 1-2.744 2.743Z"/><path fill="#000" d="M352.772 150.902h-20.469a3.36 3.36 0 0 1-3.347-3.347v-20.464a3.36 3.36 0 0 1 3.347-3.347h20.469a3.36 3.36 0 0 1 3.347 3.347v20.464a3.325 3.325 0 0 1-3.347 3.347Zm-20.442-25.923c-1.179 0-2.112.96-2.112 2.112v20.464c0 1.18.96 2.112 2.112 2.112h20.469c1.18 0 2.113-.96 2.113-2.112v-20.464c0-1.18-.96-2.112-2.113-2.112H332.33Z"/><path fill="#fff" d="M387.673 150.298h-20.469a2.751 2.751 0 0 1-2.744-2.743v-20.464a2.751 2.751 0 0 1 2.744-2.743h20.469a2.751 2.751 0 0 1 2.744 2.743v20.464a2.751 2.751 0 0 1-2.744 2.743Z"/><path fill="#000" d="M387.673 150.902h-20.469a3.36 3.36 0 0 1-3.347-3.347v-20.464a3.36 3.36 0 0 1 3.347-3.347h20.469a3.36 3.36 0 0 1 3.348 3.347v20.464a3.36 3.36 0 0 1-3.348 3.347Zm-20.441-25.923c-1.18 0-2.113.96-2.113 2.112v20.464c0 1.18.96 2.112 2.113 2.112h20.469c1.18 0 2.112-.96 2.112-2.112v-20.464c0-1.18-.96-2.112-2.112-2.112h-20.469Z"/><path fill="#fff" d="M281.652 185.191h-20.469a2.751 2.751 0 0 1-2.744-2.743v-20.464a2.751 2.751 0 0 1 2.744-2.743h20.469a2.751 2.751 0 0 1 2.744 2.743v20.464a2.751 2.751 0 0 1-2.744 2.743Z"/><path fill="#000" d="M281.652 185.795h-20.469a3.36 3.36 0 0 1-3.347-3.347v-20.464a3.36 3.36 0 0 1 3.347-3.347h20.469a3.36 3.36 0 0 1 3.348 3.347v20.464a3.36 3.36 0 0 1-3.348 3.347Zm-20.469-25.923c-1.179 0-2.112.96-2.112 2.112v20.464c0 1.18.96 2.112 2.112 2.112h20.469c1.18 0 2.113-.96 2.113-2.112v-20.464c0-1.179-.96-2.112-2.113-2.112h-20.469Z"/><path fill="#fff" d="M316.883 185.191h-20.469a2.751 2.751 0 0 1-2.744-2.743v-20.464a2.751 2.751 0 0 1 2.744-2.743h20.469a2.75 2.75 0 0 1 2.743 2.743v20.464a2.75 2.75 0 0 1-2.743 2.743Z"/><path fill="#000" d="M316.883 185.795h-20.469a3.361 3.361 0 0 1-3.348-3.347v-20.464a3.361 3.361 0 0 1 3.348-3.347h20.469a3.36 3.36 0 0 1 3.347 3.347v20.464a3.36 3.36 0 0 1-3.347 3.347Zm-20.469-25.923c-1.18 0-2.113.96-2.113 2.112v20.464c0 1.18.96 2.112 2.113 2.112h20.469c1.18 0 2.112-.96 2.112-2.112v-20.464c0-1.179-.96-2.112-2.112-2.112h-20.469Z"/><path fill="#fff" d="M352.772 185.521h-20.469a2.752 2.752 0 0 1-2.744-2.744v-20.464a2.752 2.752 0 0 1 2.744-2.743h20.469a2.752 2.752 0 0 1 2.744 2.743v20.464a2.752 2.752 0 0 1-2.744 2.744Z"/><path fill="#000" d="M352.772 186.124h-20.469a3.36 3.36 0 0 1-3.347-3.347v-20.464a3.36 3.36 0 0 1 3.347-3.346h20.469a3.36 3.36 0 0 1 3.347 3.346v20.464a3.325 3.325 0 0 1-3.347 3.347Zm-20.442-25.923c-1.179 0-2.112.96-2.112 2.112v20.464c0 1.18.96 2.113 2.112 2.113h20.469c1.18 0 2.113-.96 2.113-2.113v-20.464c0-1.179-.96-2.112-2.113-2.112H332.33Z"/><path fill="#fff" d="M387.673 185.521h-20.469a2.752 2.752 0 0 1-2.744-2.744v-20.464a2.752 2.752 0 0 1 2.744-2.743h20.469a2.752 2.752 0 0 1 2.744 2.743v20.464a2.752 2.752 0 0 1-2.744 2.744Z"/><path fill="#000" d="M387.673 186.124h-20.469a3.36 3.36 0 0 1-3.347-3.347v-20.464a3.36 3.36 0 0 1 3.347-3.346h20.469a3.36 3.36 0 0 1 3.348 3.346v20.464a3.343 3.343 0 0 1-3.348 3.347Zm-20.441-25.923c-1.18 0-2.113.96-2.113 2.112v20.464c0 1.18.96 2.113 2.113 2.113h20.469c1.18 0 2.112-.96 2.112-2.113v-20.464c0-1.179-.96-2.112-2.112-2.112h-20.469Z"/><path fill="#fff" d="M282.311 220.414h-20.469a2.752 2.752 0 0 1-2.744-2.743v-20.437a2.751 2.751 0 0 1 2.744-2.743h20.469a2.751 2.751 0 0 1 2.744 2.743v20.464c0 1.481-1.235 2.716-2.744 2.716Z"/><path fill="#000" d="M282.311 221.017h-20.469a3.36 3.36 0 0 1-3.347-3.347v-20.436a3.36 3.36 0 0 1 3.347-3.347h20.469a3.36 3.36 0 0 1 3.347 3.347v20.464c0 1.838-1.509 3.319-3.347 3.319Zm-20.441-25.923c-1.18 0-2.113.96-2.113 2.112v20.464c0 1.18.96 2.113 2.113 2.113h20.468c1.18 0 2.113-.96 2.113-2.113v-20.436c0-1.18-.96-2.112-2.113-2.112H261.87v-.028Z"/><path fill="#fff" d="M317.541 220.414h-20.469a2.751 2.751 0 0 1-2.743-2.743v-20.437a2.75 2.75 0 0 1 2.743-2.743h20.469a2.751 2.751 0 0 1 2.744 2.743v20.464c0 1.481-1.235 2.716-2.744 2.716Z"/><path fill="#000" d="M317.541 221.017h-20.468a3.36 3.36 0 0 1-3.348-3.347v-20.436a3.36 3.36 0 0 1 3.348-3.347h20.468a3.36 3.36 0 0 1 3.348 3.347v20.464c0 1.838-1.509 3.319-3.348 3.319ZM297.1 195.094c-1.18 0-2.113.96-2.113 2.112v20.464c0 1.18.961 2.113 2.113 2.113h20.469c1.18 0 2.113-.96 2.113-2.113v-20.436c0-1.18-.961-2.112-2.113-2.112H297.1v-.028Z"/><path fill="#fff" d="M353.458 220.743h-20.469a2.752 2.752 0 0 1-2.744-2.743v-20.464a2.752 2.752 0 0 1 2.744-2.744h20.469a2.752 2.752 0 0 1 2.744 2.744V218c-.028 1.536-1.235 2.743-2.744 2.743Z"/><path fill="#000" d="M353.458 221.346h-20.469a3.36 3.36 0 0 1-3.347-3.346v-20.464a3.36 3.36 0 0 1 3.347-3.347h20.469a3.36 3.36 0 0 1 3.347 3.347V218c-.027 1.865-1.509 3.346-3.347 3.346Zm-20.469-25.923c-1.18 0-2.113.96-2.113 2.113V218c0 1.179.961 2.112 2.113 2.112h20.469c1.18 0 2.113-.96 2.113-2.112v-20.464c0-1.18-.961-2.113-2.113-2.113h-20.469Z"/><path fill="#fff" d="M388.359 220.743H367.89a2.752 2.752 0 0 1-2.744-2.743v-20.464a2.752 2.752 0 0 1 2.744-2.744h20.469a2.752 2.752 0 0 1 2.744 2.744V218c-.028 1.536-1.235 2.743-2.744 2.743Z"/><path fill="#000" d="M388.359 221.346H367.89a3.36 3.36 0 0 1-3.347-3.346v-20.464a3.36 3.36 0 0 1 3.347-3.347h20.469a3.36 3.36 0 0 1 3.348 3.347V218c-.028 1.865-1.509 3.346-3.348 3.346Zm-20.469-25.923c-1.179 0-2.112.96-2.112 2.113V218c0 1.179.96 2.112 2.112 2.112h20.469c1.18 0 2.113-.96 2.113-2.112v-20.464c0-1.18-.96-2.113-2.113-2.113H367.89Z"/><path fill="#fff" d="M282.311 255.636h-20.469a2.751 2.751 0 0 1-2.744-2.743v-20.464a2.751 2.751 0 0 1 2.744-2.743h20.469a2.751 2.751 0 0 1 2.744 2.743v20.464a2.751 2.751 0 0 1-2.744 2.743Z"/><path fill="#000" d="M282.311 256.239h-20.469a3.36 3.36 0 0 1-3.347-3.346v-20.464a3.36 3.36 0 0 1 3.347-3.347h20.469a3.36 3.36 0 0 1 3.347 3.347v20.464a3.342 3.342 0 0 1-3.347 3.346Zm-20.441-25.923c-1.18 0-2.113.961-2.113 2.113v20.464c0 1.179.96 2.112 2.113 2.112h20.468c1.18 0 2.113-.96 2.113-2.112v-20.464c0-1.18-.96-2.113-2.113-2.113H261.87Z"/><path fill="#fff" d="M317.541 255.636h-20.469a2.75 2.75 0 0 1-2.743-2.743v-20.464a2.75 2.75 0 0 1 2.743-2.743h20.469a2.751 2.751 0 0 1 2.744 2.743v20.464a2.751 2.751 0 0 1-2.744 2.743Z"/><path fill="#000" d="M317.541 256.239h-20.468a3.36 3.36 0 0 1-3.348-3.346v-20.464a3.36 3.36 0 0 1 3.348-3.347h20.468a3.36 3.36 0 0 1 3.348 3.347v20.464a3.343 3.343 0 0 1-3.348 3.346ZM297.1 230.316c-1.18 0-2.113.961-2.113 2.113v20.464c0 1.179.961 2.112 2.113 2.112h20.469c1.18 0 2.113-.96 2.113-2.112v-20.464c0-1.18-.961-2.113-2.113-2.113H297.1Z"/><path fill="#fff" d="M353.458 255.965h-20.469a2.751 2.751 0 0 1-2.744-2.743v-20.464a2.751 2.751 0 0 1 2.744-2.743h20.469a2.751 2.751 0 0 1 2.744 2.743v20.464c-.028 1.536-1.235 2.743-2.744 2.743Z"/><path fill="#000" d="M353.458 256.569h-20.469a3.36 3.36 0 0 1-3.347-3.347v-20.464a3.36 3.36 0 0 1 3.347-3.347h20.469a3.36 3.36 0 0 1 3.347 3.347v20.464c-.027 1.865-1.509 3.347-3.347 3.347Zm-20.469-25.923c-1.18 0-2.113.96-2.113 2.112v20.464c0 1.18.961 2.112 2.113 2.112h20.469c1.18 0 2.113-.96 2.113-2.112v-20.464c0-1.18-.961-2.112-2.113-2.112h-20.469Z"/><path fill="#fff" d="M388.359 255.965H367.89a2.751 2.751 0 0 1-2.744-2.743v-20.464a2.751 2.751 0 0 1 2.744-2.743h20.469a2.751 2.751 0 0 1 2.744 2.743v20.464c-.028 1.536-1.235 2.743-2.744 2.743Z"/><path fill="#000" d="M388.359 256.569H367.89a3.36 3.36 0 0 1-3.347-3.347v-20.464a3.36 3.36 0 0 1 3.347-3.347h20.469a3.36 3.36 0 0 1 3.348 3.347v20.464c-.028 1.865-1.509 3.347-3.348 3.347Zm-20.469-25.923c-1.179 0-2.112.96-2.112 2.112v20.464c0 1.18.96 2.112 2.112 2.112h20.469c1.18 0 2.113-.96 2.113-2.112v-20.464c0-1.18-.96-2.112-2.113-2.112H367.89Z"/><path fill="#fff" d="M344.238 281.559h-33.776c-.96 0-1.729-.768-1.729-1.728V266.06c0-.96.769-1.728 1.729-1.728h33.776c.961 0 1.729.768 1.729 1.728v13.771c0 .96-.768 1.728-1.729 1.728Z"/><path fill="#000" d="M344.238 282.162h-33.776a2.33 2.33 0 0 1-2.332-2.331V266.06a2.33 2.33 0 0 1 2.332-2.332h33.776a2.33 2.33 0 0 1 2.333 2.332v13.771a2.33 2.33 0 0 1-2.333 2.331Zm-33.776-17.227a1.13 1.13 0 0 0-1.125 1.125v13.771a1.13 1.13 0 0 0 1.125 1.124h33.776c.604 0 1.125-.493 1.125-1.124V266.06a1.13 1.13 0 0 0-1.125-1.125h-33.776Z"/><path fill="#000" d="M416.62 389.311H233.032c-4.692 0-8.533-3.813-8.533-8.532V8.586c0-4.69 3.813-8.531 8.533-8.531H416.62c4.692 0 8.533 3.813 8.533 8.531V380.78c0 4.691-3.813 8.532-8.533 8.532ZM233.032 1.261a7.294 7.294 0 0 0-7.299 7.298v372.193a7.295 7.295 0 0 0 7.299 7.297H416.62a7.295 7.295 0 0 0 7.299-7.297V8.586a7.294 7.294 0 0 0-7.299-7.297H233.032v-.027Z"/><path fill="#fff" d="M351.756 392.685H304.7a2.084 2.084 0 0 1-2.085-2.085v-73.352c0-4.252 3.457-7.709 7.71-7.709h38.249a5.574 5.574 0 0 1 5.57 5.569v75.19a2.39 2.39 0 0 1-2.388 2.387Z"/><path fill="#000" d="M351.757 393.288H304.7a2.693 2.693 0 0 1-2.689-2.688v-73.352c0-4.582 3.732-8.312 8.314-8.312h38.249a6.181 6.181 0 0 1 6.173 6.172v75.19a2.997 2.997 0 0 1-2.99 2.99Zm-41.432-83.145a7.077 7.077 0 0 0-7.079 7.077v73.352c0 .823.658 1.482 1.482 1.482h47.029a1.78 1.78 0 0 0 1.783-1.783V315.08a4.964 4.964 0 0 0-4.966-4.965h-38.249v.028Z"/><path fill="#000" d="M335.321 346.435H320.34a3.43 3.43 0 0 1-3.43-3.429v-14.978a3.43 3.43 0 0 1 3.43-3.429h14.981a3.43 3.43 0 0 1 3.43 3.429v14.978a3.43 3.43 0 0 1-3.43 3.429Z"/><path fill="#fff" d="M392.365 110.989H258.577a4.543 4.543 0 0 1-4.555-4.554v-78.62a4.543 4.543 0 0 1 4.555-4.553h133.788a4.543 4.543 0 0 1 4.555 4.554v78.619a4.544 4.544 0 0 1-4.555 4.554Z"/><path fill="#000" d="M392.365 111.592H258.577a5.152 5.152 0 0 1-5.159-5.157v-78.62a5.152 5.152 0 0 1 5.159-5.156h133.788a5.151 5.151 0 0 1 5.158 5.157v78.619c.028 2.853-2.304 5.157-5.158 5.157ZM258.577 23.866c-2.168 0-3.951 1.783-3.951 3.95v78.619c0 2.167 1.783 3.95 3.951 3.95h133.788c2.168 0 3.951-1.783 3.951-3.95v-78.62c0-2.166-1.783-3.95-3.951-3.95H258.577Z"/><path fill="#000" d="M287.112 76.781a6.365 6.365 0 1 0-6.365-6.364 6.365 6.365 0 0 0 6.365 6.364Zm20.03-.301a6.365 6.365 0 1 0 0-12.729 6.365 6.365 0 1 0 0 12.729Zm20.332-.302a6.365 6.365 0 1 0 0-12.728 6.365 6.365 0 1 0 0 12.728Zm20.057-.302a6.365 6.365 0 1 0-6.365-6.364 6.365 6.365 0 0 0 6.365 6.364Zm19.728-.603a6.365 6.365 0 1 0-6.365-6.365 6.365 6.365 0 0 0 6.365 6.365ZM254.873 471.962c-.302 0-.576-.219-.604-.521-.055-.329.192-.631.522-.686 53.01-6.611 109.862-50.117 110.438-50.556.274-.192.659-.165.851.109.192.275.164.659-.11.851-.576.439-57.702 44.137-111.042 50.776 0 .027-.028.027-.055.027Z"/><path fill="#000" d="M250.318 481.454c-.329 0-.604-.247-.604-.576a.592.592 0 0 1 .577-.631c41.431-1.921 95.182-35.415 95.731-35.771a.651.651 0 0 1 .851.192c.192.274.082.658-.192.85-.549.329-54.575 34.015-96.308 35.936h-.055Zm-4.664-3.594a4.258 4.258 0 0 1-3.019-1.234 4.33 4.33 0 0 1-.054-6.118 4.33 4.33 0 0 1 6.118-.054 4.329 4.329 0 0 1 .055 6.117 4.385 4.385 0 0 1-3.1 1.289Zm-2.195-2.112a3.122 3.122 0 0 0 4.417-.055 3.12 3.12 0 0 0-.055-4.416 3.122 3.122 0 0 0-4.417.054c-1.18 1.235-1.18 3.237.055 4.417Zm133.102-57.086h-.027c-.22 0-.412-.137-.522-.329l-5.268-10.698a.614.614 0 0 1 .028-.576c.109-.165.274-.302.466-.302l13.006-1.152a.574.574 0 0 1 .576.302c.11.192.11.439 0 .631l-7.71 11.878c-.165.137-.357.246-.549.246Zm-4.335-10.78 4.417 8.943 6.448-9.931-10.865.988Zm77.046-296.839a.67.67 0 0 1-.439-.164c-.247-.247-.247-.631 0-.85l2.112-2.113c.247-.247.631-.247.851 0 .247.247.247.631 0 .851l-2.113 2.112a.603.603 0 0 1-.411.164Zm7.984-8.01a.67.67 0 0 1-.439-.164c-.247-.247-.247-.631 0-.851l2.113-2.112c.247-.247.631-.247.85 0 .247.247.247.631 0 .851l-2.112 2.112c-.083.11-.247.164-.412.164Zm2.14 8.01a.672.672 0 0 1-.439-.164l-2.113-2.112c-.247-.247-.247-.631 0-.851.247-.219.631-.247.851 0l2.113 2.113c.247.246.247.63 0 .85a.605.605 0 0 1-.412.164Zm-8.012-8.01a.674.674 0 0 1-.439-.164l-2.112-2.112c-.247-.247-.247-.631 0-.85.247-.248.631-.248.85 0l2.113 2.111c.247.247.247.631 0 .851a.603.603 0 0 1-.412.164Zm-438.9 97.493c-.082 0-.164-.028-.247-.055a.603.603 0 0 1-.301-.796l1.234-2.715c.137-.302.494-.439.796-.302.302.137.44.494.302.795l-1.235 2.716a.572.572 0 0 1-.549.357Zm4.692-10.287c-.082 0-.164-.028-.247-.055a.603.603 0 0 1-.301-.796l1.234-2.715a.603.603 0 0 1 .796-.302.602.602 0 0 1 .302.795l-1.235 2.716a.572.572 0 0 1-.549.357Zm4.802 6.748a.785.785 0 0 1-.247-.055l-2.716-1.234a.603.603 0 0 1 .494-1.098l2.716 1.235c.302.137.44.494.302.795a.63.63 0 0 1-.549.357Zm-10.317-4.691a.785.785 0 0 1-.247-.055l-2.716-1.234c-.302-.137-.44-.494-.302-.796a.602.602 0 0 1 .796-.301l2.716 1.234c.302.137.44.494.302.796a.573.573 0 0 1-.549.356ZM39.758 233.8a4.355 4.355 0 0 1-4.363-4.361 4.356 4.356 0 0 1 4.363-4.362 4.356 4.356 0 0 1 4.362 4.362c.028 2.414-1.948 4.361-4.362 4.361Zm0-7.516a3.174 3.174 0 0 0-3.156 3.155 3.173 3.173 0 0 0 3.156 3.154 3.173 3.173 0 0 0 3.155-3.154c0-1.756-1.4-3.155-3.155-3.155Z"/><path fill="#fff" d="M121.688 372.084c-11.524 15.965-20.332 43.259-27.026 74.97-.44 2.085-5.46 38.926-3.403 39.584 42.502 13.359 45.547 13.36 74.083 15.17 7.189.466 37.645 0 58.773-.604 1.838-.054 3.402-1.234 3.32-3.072-2.607-48.005-7.189-105.886-7.189-105.886l-98.558-20.162Z"/><path fill="#000" d="M227.407 498.763c-.329 0-.576-.247-.603-.576-2.47-45.207-6.695-99.879-7.134-105.42l-97.707-19.998c-10.345 14.512-19.317 39.557-26.698 74.422-.63 3.018-4.939 36.402-3.676 38.953.22.138.329.412.247.686a.593.593 0 0 1-.769.384c-.713-.219-1.783-.548.357-19.888 1.015-9.326 2.415-19.257 2.634-20.381 7.463-35.305 16.6-60.624 27.136-75.218a.652.652 0 0 1 .604-.247l98.53 20.19a.61.61 0 0 1 .494.548c.055.576 4.582 58.43 7.189 105.914a.593.593 0 0 1-.576.631h-.028Z"/><path fill="#fff" d="M244.776 252.673s26.642 17.913 39.099 14.539c17.533-4.746 25.243-49.377 25.984-53.327.741-3.95 4.143-24.058 7.628-31.547 3.292-7.049 5.295-14.264 6.338-18.681.631-2.66 2.469-3.977 4.253-3.703 1.591.247 2.634 1.482 1.756 5.459-1.043 4.609-1.948 9.245-2.799 13.195-.274 1.234-.768 2.414.11 1.536 2.03-2.057 5.323-4.334 8.643-5.459 1.454-.494 13.06-13.057 16.161-11.521 2.771 1.371-12.978 18.626-12.347 20.683 1.564 5.075.658 11.878-1.811 17.995-4.198 10.424-10.921 9.272-12.073 14.183-1.152 4.91-7.216 67.235-12.045 78.646-6.97 16.404-73.781 4.444-73.781 4.444l4.884-46.442Z"/><path fill="#000" d="M283.82 303.971c-19.947 0-42.419-3.951-44.038-4.252a.627.627 0 0 1-.494-.659l4.884-46.469c.027-.219.165-.384.357-.494a.601.601 0 0 1 .603.055c.275.165 26.533 17.721 38.578 14.457 14.954-4.06 22.774-37.938 25.463-52.34l.11-.521c.082-.439.192-1.097.356-1.92 1.153-6.31 4.198-23.043 7.326-29.764 3.183-6.803 5.186-13.853 6.311-18.571.686-2.826 2.662-4.499 4.939-4.142.878.137 1.536.521 1.975 1.152.714 1.042.796 2.688.275 5.047-.659 2.908-1.235 5.761-1.811 8.559-.329 1.618-.659 3.155-.96 4.636 0 .055-.028.082-.028.137 1.948-1.728 4.829-3.703 7.985-4.746.356-.137 2.003-1.645 3.429-2.962 5.845-5.349 10.866-9.684 13.198-8.531.329.164.521.438.631.795.412 1.728-2.469 5.761-7.243 12.152-2.305 3.073-5.433 7.27-5.406 8.12 1.509 4.883.823 11.768-1.838 18.379-2.497 6.172-5.927 8.477-8.451 10.15-1.838 1.207-3.155 2.112-3.594 3.95-.33 1.372-1.098 7.818-2.058 15.938-2.442 20.437-6.531 54.616-10.015 62.819-3.046 6.967-16.106 9.025-30.484 9.025Zm-43.27-5.35c6.421 1.098 66.181 10.836 72.546-4.169 3.403-8.038 7.491-42.108 9.933-62.49 1.015-8.476 1.756-14.621 2.085-16.075.549-2.304 2.195-3.401 4.116-4.69 2.524-1.674 5.652-3.759 7.985-9.574 2.551-6.337 3.21-12.92 1.783-17.611-.329-1.07 1.262-3.374 5.597-9.162 2.827-3.786 7.546-10.095 7.025-11.165-1.756-.85-8.534 5.377-11.799 8.367-2.277 2.112-3.32 3.045-3.869 3.209-3.484 1.152-6.694 3.594-8.396 5.294-.219.22-.686.686-1.179.412-.522-.302-.357-.85-.138-1.673.055-.247.138-.522.192-.796.302-1.454.631-3.017.961-4.608.576-2.771 1.18-5.651 1.838-8.559.439-1.975.412-3.347-.082-4.087-.247-.357-.604-.577-1.153-.659-1.618-.247-3.045 1.043-3.567 3.237-1.125 4.773-3.155 11.905-6.393 18.791-3.073 6.583-6.091 23.207-7.243 29.461-.138.823-.275 1.482-.357 1.921l-.11.521c-2.716 14.621-10.701 49.048-26.313 53.272-1.125.302-2.36.439-3.677.439-12.045 0-30.84-11.768-35.066-14.511l-4.719 44.905Z"/><path fill="#000" d="M132.663 228.424c32.103-14.32 94.168-11.357 137.712 35.359 5.131 5.487-9.658 46.908-22.856 44.083-11.661-2.524-21.154-5.432-22.032 1.317-1.235 9.326 7.134 83.995-5.049 105.063-21.731 37.636-86.595 32.013-119.959 13.661-8.808-4.855.439-18.16 6.914-61.639 4.829-32.397 7.628-59.225 1.674-48.856-2.936 5.075-33.612-25.484-30.402-34.591 6.997-20.08 19.344-38.953 53.998-54.397Z"/><path fill="#000" d="m302.807 217.863 25.71 3.483c1.756 59.253-3.896 101.854-81.025 86.492l10.427-55.11c28.755 20.053 39.456-4.334 44.888-34.865ZM85.772 267.98c-37.48 54.48-15.942 165.852 34.874 166.675l-1.317-48.142c-4.253-5.377-6.394-58.512 1.646-75.383l-35.203-43.15Z"/><path fill="#fff" d="M98.229 426.782c-.055 0-.11 0-.165-.027a.57.57 0 0 1-.411-.741c7.573-27.157 11.798-70.636 13.225-102.265.027-.329.302-.604.631-.576.329.027.603.302.576.631-1.427 31.711-5.652 75.272-13.253 102.539a.652.652 0 0 1-.603.439Zm53.888-203.269c.356-1.289 12.978-11.74 9.658-35.277 0 0-17.094-23.207-11.881-33.466 5.186-10.232 4.747-25.375 22.198-25.512 17.45-.137 27.712 7.708 31.746 17.886 4.033 10.177 5.076 20.381 5.46 26.307.274 4.389-.302 14.182-.631 18.982a3.896 3.896 0 0 1-2.854 3.484l-5.268 1.481a3.912 3.912 0 0 0-2.854 3.841l.193 9.409c.823 23.043-6.64 19.833-12.101 21.068-13.966 3.209-35.505-1.454-33.666-8.203Z"/><path fill="#000" d="M175.631 233.389c-9.521 0-19.289-2.332-22.855-6.035-1.18-1.235-1.619-2.634-1.263-4.005.083-.329.385-.658 1.016-1.427 2.826-3.429 11.386-13.798 8.67-33.439-1.482-2.057-17.012-23.811-11.853-33.96 1.234-2.442 2.167-5.212 3.073-7.901 2.936-8.778 6.009-17.858 19.673-17.94 15.887-.11 27.658 6.529 32.295 18.27 3.018 7.653 4.884 16.568 5.487 26.471.275 4.334-.274 13.798-.631 19.065a4.545 4.545 0 0 1-3.292 4.033l-5.269 1.481a3.325 3.325 0 0 0-2.414 3.264l.192 9.409c.713 20.218-5.049 20.821-10.152 21.342-.851.083-1.674.165-2.415.357-3.128.686-6.667 1.015-10.262 1.015Zm-22.938-9.711c-.247.96.055 1.893.961 2.826 4.554 4.745 20.99 7.132 31.965 4.635.851-.192 1.729-.274 2.579-.356 4.802-.494 9.741-1.015 9.055-20.108l-.192-9.436a4.506 4.506 0 0 1 3.292-4.444l5.268-1.481a3.347 3.347 0 0 0 2.415-2.963c.357-5.239.905-14.621.631-18.9-.604-9.794-2.442-18.572-5.405-26.115-4.445-11.22-15.777-17.584-31.17-17.502-12.814.083-15.585 8.367-18.521 17.118-.905 2.715-1.866 5.541-3.128 8.065-4.966 9.793 11.661 32.588 11.826 32.835.055.083.11.165.11.275 2.853 20.272-6.009 30.997-8.918 34.536-.329.439-.685.878-.768 1.015Z"/><path fill="#000" d="M197.911 162.889c2.113-.877 3.485-2.935 3.54-5.239.055-2.743-1.619-9.053 2.387-10.506 10.756-3.896 6.585-16.843.164-21.617-6.393-4.773-31.471-12.728-44.175-5.815 0 0-5.021 4.197-3.896 8.367 0 0-10.097.301-12.457 7.763-2.36 7.461-6.338 34.948 18.85 55.714 0 0 6.503.768 13.719-1.153 4.198-1.124 7.271-4.718 7.875-9.025.905-6.611 3.567-16.706 5.405-19.723 0 0-1.152-4.691 1.454-5.87 1.701-.768 3.787 1.207 4.692 2.825l2.442 4.279Zm10.043 31.903h-.11c-.082-.027-9.466-1.7-11.634-11.877a.583.583 0 0 1 .467-.714.582.582 0 0 1 .713.467c2.031 9.381 10.564 10.917 10.646 10.917a.593.593 0 0 1 .494.686.569.569 0 0 1-.576.521Z"/><path fill="#000" d="M196.128 173.259s-.028 0 0 0c-.33 0-7.903-.33-9.905-13.716-.055-.329.192-.631.521-.686.329-.055.631.192.686.521 1.838 12.317 8.451 12.674 8.725 12.701.329 0 .604.302.576.631a.6.6 0 0 1-.603.549Zm108.847 250.177-1.18-4.28-4.857.22a17.578 17.578 0 0 0-1.564-2.689l2.579-4.114-3.155-3.128-4.088 2.606a20.055 20.055 0 0 0-2.689-1.536l.164-4.855-4.307-1.125-2.223 4.307a16.829 16.829 0 0 0-3.1.027l-2.278-4.279-4.28 1.18.219 4.855c-.932.439-1.838.96-2.661 1.564l-4.116-2.579-3.128 3.155 2.607 4.087a20.05 20.05 0 0 0-1.537 2.688l-4.856-.164-1.125 4.307 4.308 2.221a16.655 16.655 0 0 0 .027 3.1l-4.28 2.277 1.18 4.279 4.856-.219c.439.933.96 1.838 1.564 2.688l-2.579 4.115 3.155 3.127 4.089-2.606c.85.576 1.756 1.098 2.689 1.536l-.165 4.856 4.308 1.125 2.222-4.307c1.015.082 2.058.082 3.101-.028l2.277 4.28 4.28-1.18-.219-4.855c.933-.439 1.838-.96 2.661-1.564l4.116 2.579 3.128-3.155-2.607-4.087a19.953 19.953 0 0 0 1.537-2.689l4.857.165 1.124-4.307-4.307-2.222a16.743 16.743 0 0 0-.028-3.1l4.281-2.276Zm-19.728 14.95c-6.092 1.673-12.375-1.92-14.049-8.01-1.673-6.09 1.921-12.399 8.012-14.045 6.091-1.674 12.375 1.92 14.049 8.01 1.646 6.09-1.921 12.372-8.012 14.045Z"/><path fill="#FF3811" d="M96.472 129.505c22.322 0 40.417-18.091 40.417-40.407 0-22.316-18.095-40.407-40.417-40.407-22.32 0-40.416 18.091-40.416 40.407 0 22.316 18.095 40.407 40.416 40.407Z"/><path fill="#fff" d="m105.856 83.42-.192-12.81c-.083-4.143-3.375-7.544-7.518-7.736-4.555-.22-8.341 3.51-8.232 8.092l.083 3.977c.027 1.4-1.125 2.524-2.497 2.47a2.424 2.424 0 0 1-2.305-2.36l-.055-3.785c-.165-7.325 5.707-13.36 13.28-13.058 6.256.247 11.991 5.76 12.128 12.454l.164 12.948-4.856-.192Z"/><path fill="#FF3811" d="M110.685 84.215c-.027 0-.027 0 0 0l-4.856-.192c-.33 0-.577-.274-.577-.603l-.192-12.81c-.082-3.814-3.128-6.941-6.942-7.133-2.03-.082-3.95.63-5.405 2.057a7.283 7.283 0 0 0-2.195 5.404l.082 3.978a2.96 2.96 0 0 1-.905 2.222c-.604.576-1.4.905-2.222.85-1.592-.055-2.854-1.371-2.882-2.962l-.054-3.786c-.083-3.758 1.317-7.297 3.978-9.903 2.634-2.578 6.146-3.923 9.933-3.758h.082c6.695.33 12.457 6.282 12.622 13.03l.164 12.948c0 .165-.055.33-.192.439a.567.567 0 0 1-.439.22Zm-4.253-1.399 3.622.137-.165-12.316c-.137-6.172-5.432-11.604-11.551-11.85h-.082c-3.403-.11-6.585 1.096-8.945 3.428-2.415 2.36-3.704 5.569-3.622 8.998l.055 3.785c0 .96.768 1.728 1.728 1.783.494.028.988-.164 1.345-.52.357-.358.549-.824.549-1.318l-.083-3.977a8.466 8.466 0 0 1 2.58-6.282 8.324 8.324 0 0 1 6.31-2.414c4.445.192 7.985 3.868 8.095 8.312l.164 12.234Z"/><path fill="#fff" d="m100.478 118.642-5.405.22c-7.49-.192-14.103-9.135-13.39-19.642l1.125-16.815 31.828-.247c2.827 0 5.186 2.496 4.994 5.322l-.988 14.209c-.631 9.547-8.56 16.953-18.164 16.953Z"/><path fill="#fff" d="M95.265 118.395c-10.536 0-18.877-8.915-18.164-19.449L78.2 82.624h33.666a2.676 2.676 0 0 1 2.662 2.853l-1.07 15.911c-.659 9.573-8.616 17.007-18.192 17.007Z"/><path fill="#FF3811" d="M95.265 118.999c-5.268 0-10.152-2.113-13.746-5.98-3.595-3.841-5.378-8.861-5.022-14.128l1.098-16.322c.027-.329.274-.576.604-.576h33.666c.906 0 1.784.384 2.387 1.043.631.658.933 1.563.878 2.469l-1.07 15.91c-.686 9.875-8.917 17.584-18.795 17.584Zm-16.49-35.744-1.07 15.746c-.33 4.91 1.344 9.601 4.692 13.222 3.374 3.594 7.93 5.596 12.868 5.596 9.219 0 16.957-7.214 17.56-16.431l1.071-15.91a2.194 2.194 0 0 0-.549-1.564 2.075 2.075 0 0 0-1.509-.659H78.775Z"/><path fill="#FF3811" d="M94.853 108.081c-.85 0-1.536-.713-1.481-1.591l.795-12.674a1.496 1.496 0 0 1 1.482-1.399c.85 0 1.537.714 1.482 1.591l-.796 12.674c-.055.768-.713 1.399-1.482 1.399Z"/><path fill="#FF3811" d="M95.375 100.455a5.487 5.487 0 1 0-5.488-5.486 5.487 5.487 0 0 0 5.488 5.486Z"/></g><defs><clipPath id="a"><path fill="#fff" d="M0 0h460v502H0z"/></clipPath></defs></svg>